<?xml version="1.0" encoding="utf-8"?>
<!-- Generator: Adobe Illustrator 19.1.0, SVG Export Plug-In . SVG Version: 6.00 Build 0)  -->
<svg version="1.1" id="Layer_1" xmlns="http://www.w3.org/2000/svg" xmlns:xlink="http://www.w3.org/1999/xlink" x="0px" y="0px"
	 viewBox="0 0 232.1 232.1" style="enable-background:new 0 0 232.1 232.1;" xml:space="preserve">
<style type="text/css">
	.st0{fill:#F69220;}
	.st1{fill:#F2F2F2;}
	.st2{fill:#676767;}
	.st3{fill:#FFFFFF;}
	.st4{fill:#979797;}
	.st5{fill:#F05B22;}
</style>
<g>
	<path class="st0" d="M116,232.1c-64,0-116-52-116-116S52,0,116,0s116,52,116,116S180,232.1,116,232.1z"/>
	<path class="st1" d="M220.3,116v0.4c-0.1,18.5-4.9,35.8-13.4,50.8c-0.7,1.3-1.5,2.6-2.3,3.9c-8.2,13.2-19.3,24.4-32.4,32.7
		c-1.3,0.8-2.6,1.6-3.9,2.4c-15,8.7-32.3,13.8-50.8,14c-0.5,0-0.9,0-1.4,0c-0.8,0-1.7,0-2.5,0c-18.5-0.4-35.9-5.7-50.8-14.6
		c-1.3-0.8-2.6-1.6-3.9-2.4c-12.6-8.3-23.3-19.2-31.3-32.1c-0.8-1.3-1.6-2.6-2.3-3.9c-8.5-15-13.4-32.4-13.4-50.8V116
		c0-1.2,0-2.3,0.1-3.5c0.6-18.6,6.1-36,15.2-50.8c0.8-1.3,1.6-2.6,2.5-3.9c7.8-11.5,17.7-21.3,29.3-28.9c1.3-0.8,2.6-1.6,3.9-2.4
		c14.9-8.9,32.3-14.2,50.8-14.6c0.8,0,1.6,0,2.5,0c0.5,0,0.9,0,1.4,0c18.5,0.2,35.9,5.3,50.8,14c1.3,0.8,2.6,1.5,3.9,2.4
		c12,7.7,22.4,17.8,30.3,29.6c0.9,1.3,1.7,2.6,2.5,3.9c9.1,14.9,14.6,32.2,15.2,50.8C220.2,113.7,220.3,114.9,220.3,116z"/>
	<g>
		<g>
			<path class="st2" d="M125.4,125.4V98.5H119V89h18.4v36.5H125.4z"/>
			<path class="st2" d="M161.5,103.8c4.6,1.1,8,4.6,8,10.1c0,7.1-5.7,12.1-14.6,12.1c-5.5,0-11.2-1.9-14.7-4.8l4.8-9.2
				c2.8,3.4,5.8,5.1,8.9,5.1c2.5,0,3.7-1,3.7-3.2c0-2.1-1.2-3.2-3.7-3.2h-6.6v-6.3l6.9-6.6h-12.1v-8.7h25.7v6.8l-7.9,7.5
				L161.5,103.8z"/>
			<path class="st2" d="M204.6,107.2c0,12-6,18.6-16.7,18.6c-10.8,0-16.7-6.7-16.7-18.6s5.9-18.6,16.7-18.6
				C198.7,88.6,204.6,95.2,204.6,107.2z M183.6,107.2c0,7.4,1.1,9.9,4.4,9.9c3.2,0,4.3-2.5,4.3-9.9s-1.1-9.8-4.3-9.8
				C184.7,97.4,183.6,99.8,183.6,107.2z"/>
		</g>
	</g>
	<path class="st3" d="M106.7,119.6c-0.1-0.5-0.1-1-0.1-1.5C106.7,118.7,106.7,119.1,106.7,119.6z"/>
	<path class="st4" d="M107,115.9c-0.2-0.2-0.3-0.4-0.4-0.5C106.9,115.6,107,115.8,107,115.9z"/>
	<g>
		<g>
			<path class="st5" d="M164.1,63.6c-1.3-0.3-2.7-0.5-4-0.7c-2.4-0.3-4.9-0.5-7.5-0.5c-1.2,0-2.3,0-3.5,0.1c-1-0.1-1.9-0.3-2.8-0.4
				c-9.5-1.2-18.3-1.2-25.8-4.3c0,0,1,7.8,6.6,11c-0.7,0.4-1.4,0.8-2.1,1.2c-4,2.4-8.8,3.2-13.3,1.9c0,0-0.1,0-0.1,0
				c-11-3.3-18.7-25.7-37-28.6c-18.3-2.9-31.7,5-31.7,5s11,0,19.1,3.7c8.1,3.7,11,14.1,15.9,20.7c4.9,6.6,9,13.7,17.1,14.9
				c8.1,1.2,6.1,5.8,4.1,8.3c-2,2.5-8.5,4.6-14.2-0.8c-5.7-5.4-6.5-17.8-22.8-19.1c0,0,7.3,5,9,9.5c1.6,4.6-4.1,4.2-4.1,4.2
				s0.4,5.8,4.5,7c4.1,1.2,14.2,1.7,18.3,5c4.1,3.3,8.1,7.9,8.1,12c0,4.2-4.9,6.6-9.4,3.3c-4.5-3.3-16.3-3.3-22.4-2.5
				c-6.1,0.8-20.3-1.7-29.3-14.5c0.2,0.5,5.1,13.8,18.3,19.9c13.4,6.2,24,1.7,29.3,6.6c5.3,5-1.6,12.4-10.2,9.9
				c-8.5-2.5-11-9.1-11-9.1s-2.4,20.3,12.6,25.3c15,5,21.2,1.2,29.3,3.3c8.1,2.1,8.1,8.3,3.3,11.2c-4.9,2.9-13.8-4.2-13.8-4.2
				s-0.4,7.9,6.5,9.5c6.9,1.7,15.5,2.5,24-0.4c4.7-1.6,9.7-1.2,13.8-0.5c-21.8-7.3-37.6-28.3-37.6-53c0-27.3,19.2-50,44.5-54.8
				c2.5-0.4,5.7-0.8,14.4-0.8C161.5,63.3,162.8,63.4,164.1,63.6z"/>
		</g>
		<path class="st5" d="M61.7,89.3c0,0-8.2-2.6-16.9-1.7S33,70.1,26,67.7c0,0,9.4-4.3,14.1,1c4.7,5.3,3.3,7.4,5.6,9.1
			c2.3,1.7,5.4,1.7,6.8,0s0.7-5-0.2-6c0,0,4,1,4.9,4.5C58.2,79.9,57,84.9,61.7,89.3z"/>
	</g>
	<g>
		<g>
			<path class="st2" d="M130,144h-1.3l-1.5-11.5h1.6l0.7,6l0,0.4h0.1l0-0.4l0.7-6h1.2l0.7,6l0,0.4h0.1l0-0.4l0.7-6h1.6l-1.5,11.5
				h-1.3l-0.8-5.4l-0.1-0.7h-0.1l-0.1,0.7L130,144z"/>
			<path class="st2" d="M135.1,132.5h1.7c0.7,0,1.5,0.2,2,0.7c0.6,0.5,0.9,1.4,0.9,2.7c0,1.3-0.4,2.2-0.9,2.7
				c-0.6,0.5-1.3,0.7-2,0.7v4.6h-1.7V132.5z M136.8,137.7c0.5,0,0.8-0.1,1-0.4c0.2-0.2,0.2-0.7,0.2-1.3c0-0.6,0-1.1-0.2-1.4
				c-0.2-0.3-0.5-0.4-1-0.4V137.7z"/>
			<path class="st2" d="M143.1,144l-1.1-7.2l-0.1-0.5h-0.1v7.7h-1.6v-11.5h2.1l1,5.2l0.1,0.6h0l0.1-0.6l1-5.2h2.1V144H145v-7.7H145
				l-0.1,0.5l-1.1,7.2H143.1z"/>
			<path class="st2" d="M149.6,132.5h1.7V144h-1.7V132.5z"/>
			<path class="st2" d="M154,138l-0.1-0.5h-0.1v6.5h-1.5v-11.5h1.5l1.6,6l0.1,0.5h0.1v-6.5h1.5V144h-1.5L154,138z"/>
			<path class="st2" d="M162.8,138.6c0-0.5-0.2-0.8-0.5-0.8c-0.2,0-0.3,0.1-0.5,0.3c-0.1,0.2-0.2,0.4-0.2,0.5h-1.4v-6h4.1v1.7h-2.6
				v2.4c0.2-0.1,0.4-0.3,0.6-0.3c0.1,0,0.2-0.1,0.3,0c0.9,0,1.3,0.5,1.6,1c0.2,0.5,0.3,1.1,0.3,1.3v2.6c0,0.5,0,1.3-0.3,1.9
				c-0.3,0.6-0.9,1.1-1.9,1.1c-1,0-1.6-0.5-1.9-1.2c-0.3-0.7-0.3-1.5-0.3-2.3h1.7v0.5c0,0.6,0,1,0.1,1.2c0.1,0.2,0.2,0.3,0.4,0.3
				c0.2,0,0.3-0.1,0.4-0.3c0.1-0.2,0.1-0.6,0.1-1.2V138.6z"/>
			<path class="st2" d="M170.1,135.6c0-0.4,0-0.8-0.1-1.1c-0.1-0.3-0.3-0.5-0.5-0.5c-0.4,0-0.6,0.5-0.6,1.1c0,0.4,0.2,0.8,0.4,1.2
				c0.2,0.4,0.6,0.9,0.9,1.4c0.4,0.6,0.8,1.2,1.1,1.7c0.3,0.6,0.5,1.2,0.5,1.8c0,0.8-0.1,1.5-0.5,2c-0.4,0.5-0.9,0.9-1.9,0.9
				c-1.1,0-1.7-0.4-2-1c-0.3-0.6-0.4-1.5-0.4-2.3l1.7-0.2c0,0.5,0,1,0.1,1.3c0.1,0.4,0.3,0.6,0.7,0.6c0.5,0,0.7-0.5,0.7-1.3
				c0-0.4-0.2-0.8-0.4-1.3c-0.1-0.2-0.3-0.5-0.4-0.7c-0.3-0.5-0.7-1-1.1-1.6s-0.7-1.2-0.8-1.8c-0.1-0.3-0.1-0.6-0.1-0.9
				c0-0.6,0.1-1.3,0.5-1.8c0.4-0.5,0.9-0.9,1.7-0.9c1,0,1.6,0.4,1.9,1c0.3,0.6,0.4,1.4,0.4,2L170.1,135.6z"/>
			<path class="st2" d="M172.4,132.5h3.9v1.7h-2.2v3h1.6v1.8h-1.6v3.1h2.2v1.7h-3.9V132.5z"/>
			<path class="st2" d="M181.2,140.1v1.6c0,0.5-0.1,0.9-0.3,1.2c-0.1,0.3-0.4,0.6-0.7,0.8c-0.3,0.2-0.7,0.4-1.3,0.4
				c-0.6,0-1-0.1-1.3-0.4c-0.3-0.2-0.5-0.5-0.7-0.8c-0.2-0.4-0.3-0.8-0.3-1.2v-6.8c0-0.5,0.1-0.9,0.3-1.2c0.1-0.3,0.3-0.6,0.7-0.9
				s0.7-0.4,1.3-0.4c0.6,0,1,0.2,1.3,0.4s0.5,0.5,0.7,0.9c0.2,0.4,0.3,0.8,0.3,1.2v1.6h-1.6v-1.6c0-0.3-0.1-0.5-0.2-0.7
				c-0.1-0.1-0.2-0.1-0.4-0.1c-0.3,0-0.4,0.2-0.5,0.4c0,0.1-0.1,0.3-0.1,0.4v6.8c0,0.3,0.1,0.5,0.3,0.7c0.1,0.1,0.2,0.1,0.3,0.1
				c0.4,0,0.5-0.2,0.6-0.4c0-0.1,0.1-0.2,0.1-0.4v-1.6H181.2z"/>
			<path class="st2" d="M186.3,141.6c0,0.5-0.1,0.9-0.3,1.2c-0.1,0.3-0.4,0.6-0.7,0.8c-0.3,0.2-0.7,0.4-1.3,0.4
				c-0.6,0-1-0.1-1.3-0.4c-0.3-0.2-0.5-0.5-0.7-0.8c-0.2-0.4-0.3-0.8-0.3-1.2v-6.8c0-0.5,0.1-0.9,0.3-1.2c0.1-0.3,0.3-0.6,0.7-0.9
				s0.7-0.4,1.3-0.4c0.6,0,1,0.2,1.3,0.4c0.3,0.2,0.5,0.5,0.7,0.9c0.2,0.4,0.3,0.8,0.3,1.2V141.6z M184.6,134.9
				c0-0.3-0.1-0.5-0.2-0.7c-0.1-0.1-0.2-0.1-0.3-0.1c-0.3,0-0.4,0.2-0.5,0.4c0,0.1-0.1,0.3-0.1,0.4v6.8c0,0.3,0.1,0.5,0.2,0.7
				c0.1,0.1,0.2,0.1,0.3,0.1c0.3,0,0.4-0.2,0.5-0.4c0-0.1,0.1-0.2,0.1-0.4V134.9z"/>
			<path class="st2" d="M188.9,138l-0.1-0.5h-0.1v6.5h-1.5v-11.5h1.5l1.6,6l0.1,0.5h0.1v-6.5h1.5V144h-1.5L188.9,138z"/>
			<path class="st2" d="M193,144v-11.5h1.3c1.6,0,2.4,0.3,2.9,1.2c0.4,0.9,0.5,2.3,0.5,4.6c0,2.2-0.1,3.7-0.5,4.5
				c-0.5,0.9-1.3,1.2-2.9,1.2H193z M194.7,142.3c0.6,0,0.9-0.1,1.1-0.6c0.1-0.3,0.1-0.7,0.2-1.2c0-0.5,0-1.3,0-2.2
				c0-0.9,0-1.7,0-2.2c0-0.5-0.1-0.9-0.2-1.2c-0.2-0.5-0.5-0.6-1.1-0.6V142.3z"/>
			<path class="st2" d="M201.3,135.6c0-0.4,0-0.8-0.1-1.1c-0.1-0.3-0.3-0.5-0.5-0.5c-0.4,0-0.6,0.5-0.6,1.1c0,0.4,0.2,0.8,0.4,1.2
				c0.2,0.4,0.6,0.9,0.9,1.4c0.4,0.6,0.8,1.2,1.1,1.7c0.3,0.6,0.5,1.2,0.5,1.8c0,0.8-0.1,1.5-0.5,2c-0.4,0.5-0.9,0.9-1.9,0.9
				c-1.1,0-1.7-0.4-2-1c-0.3-0.6-0.4-1.5-0.4-2.3l1.7-0.2c0,0.5,0,1,0.1,1.3c0.1,0.4,0.3,0.6,0.7,0.6c0.5,0,0.7-0.5,0.7-1.3
				c0-0.4-0.2-0.8-0.4-1.3c-0.1-0.2-0.3-0.5-0.4-0.7c-0.3-0.5-0.7-1-1.1-1.6s-0.7-1.2-0.8-1.8c-0.1-0.3-0.1-0.6-0.1-0.9
				c0-0.6,0.1-1.3,0.5-1.8c0.4-0.5,0.9-0.9,1.7-0.9c1,0,1.6,0.4,1.9,1c0.3,0.6,0.4,1.4,0.4,2L201.3,135.6z"/>
		</g>
	</g>
	<g>
		<path class="st2" d="M88.5,184.6h-3.9v5h2.6v2.9h-2.6v8.3h-2.8v-19.1h6.7V184.6z"/>
		<path class="st2" d="M89.1,181.7h2.6v2.6h-2.6V181.7z M89.1,200.8v-14.2h2.6v14.2H89.1z"/>
		<path class="st2" d="M99.8,195.7v1.6c-0.1,1.4-0.5,2.3-1.4,3.1c-0.5,0.4-1.1,0.6-2,0.6c-1.7,0-2.5-0.9-3-1.9
			c-0.2-0.5-0.4-1.2-0.4-1.9v-7.2c0.1-1.4,0.5-2.4,1.5-3.2c0.4-0.4,1.1-0.6,2-0.6c1.7,0,2.5,0.9,3,1.8c0.2,0.5,0.4,1.1,0.4,1.8v4.1
			h-4.3v3.1c0,0.5,0.2,0.9,0.4,1.2c0.1,0.1,0.3,0.2,0.5,0.2c0.5,0,0.7-0.3,0.8-0.7c0.1-0.2,0.1-0.4,0.1-0.7v-1.6H99.8z M95.5,192.1
			h1.9v-2c0-0.5-0.1-0.9-0.4-1.2c-0.1-0.1-0.3-0.2-0.6-0.2c-0.5,0-0.7,0.3-0.8,0.7c-0.1,0.2-0.1,0.4-0.1,0.7V192.1z"/>
		<path class="st2" d="M106.3,189.3c-0.2-0.1-0.5-0.1-0.7-0.1c-0.4,0-0.9,0.1-1.3,0.4c-0.5,0.4-0.6,0.9-0.6,1.3v9.9H101v-14.2h2.6
			v1.6c0-0.2,0.2-0.6,0.6-1c0.4-0.4,1-0.8,2-0.8V189.3z"/>
		<path class="st2" d="M106.3,203.5c0,0,0.1,0,0.2,0c0.1,0,0.8,0.1,1.2-0.2c0.4-0.3,0.7-0.8,0.9-1.3c0.1-0.3,0.1-0.5,0.1-0.8
			l-2.4-14.6h2.6l1,8.7l0.1,0.7h0.1l0.1-0.7l1-8.7h2.6l-2.5,15.3c-0.1,1-0.5,2-1.1,2.8s-1.5,1.3-2.5,1.3c-0.1,0-0.2,0-0.3,0
			c-0.2,0-0.5,0-0.9-0.1V203.5z"/>
		<path class="st2" d="M116.9,184.6v-2.9h8.1v2.9h-2.7v16.2h-2.8v-16.2H116.9z"/>
		<path class="st2" d="M124.9,203.5c0,0,0.1,0,0.2,0c0.1,0,0.8,0.1,1.2-0.2c0.4-0.3,0.7-0.8,0.9-1.3c0.1-0.3,0.1-0.5,0.1-0.8
			l-2.4-14.6h2.6l1,8.7l0.1,0.7h0.1l0.1-0.7l1-8.7h2.6l-2.5,15.3c-0.1,1-0.5,2-1.1,2.8s-1.5,1.3-2.5,1.3c-0.1,0-0.2,0-0.3,0
			c-0.2,0-0.5,0-0.9-0.1V203.5z"/>
		<path class="st2" d="M133,186.6h2.6v0.9c0.4-0.4,0.8-0.7,1.4-1c0.2-0.1,0.5-0.2,0.7-0.2c0.7,0,1.2,0.4,1.6,0.9
			c0.3,0.5,0.5,1.2,0.5,1.8v9.1c0,0.6-0.2,1.3-0.5,1.8c-0.3,0.5-0.8,1-1.6,1c-0.5,0-1-0.3-1.4-0.6c-0.2-0.2-0.4-0.4-0.7-0.6v5.8H133
			V186.6z M135.7,197.7c0,0.4,0.4,0.9,0.8,0.9c0.4,0,0.7-0.4,0.7-0.9v-8c0-0.5-0.3-0.9-0.7-0.9c-0.4,0-0.8,0.4-0.8,0.9V197.7z"/>
		<path class="st2" d="M141.2,181.7h2.6v2.6h-2.6V181.7z M141.2,200.8v-14.2h2.6v14.2H141.2z"/>
		<path class="st2" d="M149.3,190.2c0-0.3,0-0.8-0.1-1.1c-0.1-0.3-0.3-0.6-0.8-0.6c-0.3,0-0.5,0.3-0.7,0.6c-0.1,0.3-0.2,0.8-0.2,1.1
			c0,0.4,0.2,0.9,0.6,1.3c0.3,0.4,0.7,0.8,1.1,1.2c0.5,0.5,1.2,1.2,1.6,1.9c0.4,0.7,0.8,1.5,0.8,2.5c0,0.9-0.2,1.9-0.7,2.6
			c-0.5,0.8-1.4,1.3-2.6,1.3c-1.6,0-2.5-0.7-3-1.6c-0.5-0.9-0.6-2-0.6-2.7h2.4c0,0.4,0,0.9,0.2,1.4c0.2,0.4,0.5,0.8,1,0.8
			c0.8,0,0.9-0.9,0.9-1.7c0-0.9-0.8-1.7-1.6-2.5c-0.6-0.6-1.2-1.1-1.7-1.8c-0.5-0.7-0.8-1.5-0.8-2.5c0-0.8,0.2-1.8,0.6-2.5
			c0.5-0.7,1.3-1.3,2.5-1.3c1.5,0,2.4,0.5,2.8,1.3c0.4,0.8,0.5,1.7,0.5,2.5H149.3z"/>
		<path class="st2" d="M155.7,183.1v3.5h1.8v2.4h-1.8v7.1c0,0.4,0,1,0.1,1.5c0.1,0.5,0.3,0.9,0.7,0.9c0.2,0,0.5,0,0.7-0.1
			c0.1,0,0.2,0,0.3-0.1v2.6c-0.1,0-0.3,0.1-0.4,0.1c-0.3,0.1-0.6,0.1-1,0.1c-1.5,0-2.3-0.8-2.6-1.8c-0.4-1-0.4-2.2-0.4-3V189h-1.3
			v-2.4h1.3v-3.5H155.7z"/>
	</g>
</g>
</svg>
